<?xml version="1.0" encoding="UTF-8" standalone="no"?><!DOCTYPE svg PUBLIC "-//W3C//DTD SVG 1.1//EN" "http://www.w3.org/Graphics/SVG/1.1/DTD/svg11.dtd"><svg width="100%" height="100%" viewBox="0 0 126 138" version="1.1" xmlns="http://www.w3.org/2000/svg" xmlns:xlink="http://www.w3.org/1999/xlink" xml:space="preserve" xmlns:serif="http://www.serif.com/" style="fill-rule:evenodd;clip-rule:evenodd;stroke-linecap:round;stroke-linejoin:round;stroke-miterlimit:1.5;"><g><path d="M75.909,85.769l29.959,-25.695c0,0 -1.039,10.09 7.891,12.227l-32.556,21.67l-5.294,-8.202Z" style="fill:#fff;stroke:#000;stroke-width:2px;"/><path d="M112.281,68.65c0,0 -0.878,-4.977 -3.302,-6.199c-2.423,-1.223 -0.017,7.418 5.159,7.632c5.177,0.213 -4.174,-14.154 -7.815,-10.303" style="fill:none;stroke:#000;stroke-width:2px;"/><path d="M102.955,66.119c0,0 0.735,4.7 6.288,8.658" style="fill:none;stroke:#000;stroke-width:2px;"/><path d="M99.505,69.442c0,0 0.853,4.371 5.459,8.097l-12.177,7.86c0,0 -3.708,-2.529 -4.119,-6.381l10.837,-9.576Z" style="stroke:#000;stroke-width:2px;"/></g><path d="M25.342,96.074l-18.635,-34.048l57.762,-15.357l7.745,34.785l-46.872,14.62Z" style="fill:#fff;stroke:#000;stroke-width:2px;"/><path d="M25.436,96.208l-16.024,-8.362l-8.412,-15.858l5.759,-9.998l18.677,34.218Z" style="fill:none;stroke:#000;stroke-width:2px;"/><g><path d="M80.494,91.859l-15.988,-36.086c0,0 9.365,3.899 13.98,-4.04l11.387,37.416l-9.379,2.71Z" style="fill:#fff;stroke:#000;stroke-width:2px;"/><path d="M74.565,52.099c0,0 -5.019,-0.591 -6.887,1.378c-1.869,1.97 7.1,2.152 8.793,-2.745c1.694,-4.896 -14.756,-0.074 -12.115,4.521" style="fill:none;stroke:#000;stroke-width:2px;"/><path d="M69.458,60.302c0,0 4.712,0.649 10.101,-3.53" style="fill:none;stroke:#000;stroke-width:2px;"/><path d="M71.648,64.563c0,0 4.431,0.44 9.325,-2.899l4.023,13.924c0,0 -3.488,2.823 -7.296,2.109l-6.052,-13.134Z" style="stroke:#000;stroke-width:2px;"/></g><g><path d="M76.988,84.841l-2.923,-39.36c0,0 7.509,6.821 14.525,0.897l-1.858,39.065l-9.744,-0.602Z" style="fill:#fff;stroke:#000;stroke-width:2px;"/><path d="M84.775,45.403c0,0 -4.529,-2.244 -6.951,-1.018c-2.422,1.226 5.963,4.414 9.205,0.372c3.242,-4.041 -13.872,-5.032 -12.93,0.183" style="fill:none;stroke:#000;stroke-width:2px;"/><path d="M77.206,51.411c0,0 4.22,2.196 10.7,0.072" style="fill:none;stroke:#000;stroke-width:2px;"/><path d="M77.836,56.16c0,0 4.025,1.905 9.756,0.406l-0.893,14.466c0,0 -4.234,1.486 -7.581,-0.468l-1.282,-14.404Z" style="stroke:#000;stroke-width:2px;"/></g><path d="M29.603,90.705l-13.95,-24.675l45.976,-11.264l4.874,24.983l-36.9,10.956Z" style="stroke:#000;stroke-width:2px;"/><path d="M8.036,82.888c-4.609,5.432 -7.036,11.593 -7.036,17.865c0,19.72 23.531,35.73 52.515,35.73c28.984,0 52.515,-16.01 52.515,-35.73c0,-6.272 -2.427,-12.433 -7.036,-17.865l-90.958,0Z" style="fill:#fff;stroke:#000;stroke-width:2px;"/><circle cx="28.135" cy="80.458" r="14.85" style="fill:#fff;stroke:#000;stroke-width:2px;"/><circle cx="28.135" cy="80.458" r="10.53" style="stroke:#000;stroke-width:2px;"/><g><path d="M75.136,86.937l13.914,-36.935c0,0 3.941,9.348 12.798,6.927l-18.126,34.655l-8.586,-4.647Z" style="fill:#fff;stroke:#000;stroke-width:2px;"/><path d="M98.797,54.439c0,0 -3.163,-3.942 -5.876,-3.849c-2.713,0.093 3.552,6.514 8.193,4.212c4.642,-2.302 -10.466,-10.403 -11.806,-5.276" style="fill:none;stroke:#000;stroke-width:2px;"/><path d="M89.403,56.704c0,0 2.904,3.767 9.676,4.568" style="fill:none;stroke:#000;stroke-width:2px;"/><path d="M87.976,61.276c0,0 2.849,3.423 8.679,4.475l-6.898,12.747c0,0 -4.467,-0.435 -6.68,-3.615l4.899,-13.607Z" style="stroke:#000;stroke-width:2px;"/></g><circle cx="62.836" cy="121.169" r="4.56" style="stroke:#000;stroke-width:2px;"/><circle cx="77.095" cy="80.458" r="14.85" style="fill:#fff;stroke:#000;stroke-width:2px;"/><circle cx="77.095" cy="80.458" r="10.53" style="stroke:#000;stroke-width:2px;"/><path d="M38.799,52.817l7.936,-51.817" style="fill:none;stroke:#000;stroke-width:2px;"/><path d="M33.649,54.766l-23.882,-29.88" style="fill:none;stroke:#000;stroke-width:2px;"/><path d="M44.922,39.75c-0.466,-1.578 -2.125,-2.48 -3.703,-2.014l-18.52,5.474c-1.577,0.467 -2.48,2.126 -2.013,3.703l1.689,5.717c0.467,1.578 2.126,2.48 3.703,2.013l18.52,-5.474c1.578,-0.466 2.48,-2.125 2.014,-3.703l-1.69,-5.716Z" style="fill-opacity:0;stroke:#000;stroke-width:2px;"/><path d="M13.465,22.588l7.56,-8.82l-0.54,5.76l10.08,-11.34l-0.54,4.86l9.435,-9.54l0,4.68l3.705,-4.68" style="fill:none;stroke:#000;stroke-width:2px;"/><path d="M16.885,13.048l6.84,-7.02l0,4.14" style="fill:none;stroke:#000;stroke-width:2px;"/><path d="M37.225,11.248l-8.91,8.1l0,-3.06" style="fill:none;stroke:#000;stroke-width:2px;"/><path d="M66.135,46.644c0,0 -9.698,-6.129 -5.879,-14.318c0,0 5.327,9.645 9.61,7.544c0,0 -3.929,-13.278 -0.266,-18.588c0,0 2.747,11.893 12.293,13.379c0,0 2.995,2.469 4.423,-9.185c1.427,-11.642 9.529,-7.558 9.155,-7.116c-0.373,0.442 -8.513,9.963 0.804,21.078c0,0 -0.528,-4.8 6.665,-8.166c0,0 -5.616,10.487 -1.881,14.436c0,0 13.436,-1.876 13.665,-12.901c0,0 2.916,15.69 -4.611,20.534c0,0 10.268,-9.475 14.412,-2.886c0,0 -10.323,0.598 -6.769,9.851c3.554,9.252 0.68,7.643 0.594,7.821" style="fill:none;stroke:#000;stroke-width:2px;"/><path d="M77.443,27.95c0,0 5.044,-7.571 1.62,-12.433c0,0 5.145,4.017 4.08,9.546c-1.064,5.528 -3.179,4.676 -1.354,6.68" style="fill:none;stroke:#000;stroke-width:2px;"/><path d="M105.069,38.809c0,0 4.969,-6.971 4.23,-11.418c0,0 2.194,5.846 0.876,10.147" style="fill:none;stroke:#000;stroke-width:2px;"/></svg>